<svg xmlns="http://www.w3.org/2000/svg" xmlns:xlink="http://www.w3.org/1999/xlink" fill="none" version="1.1" width="199.1612904071808" height="101.30197644233704" viewBox="0 0 199.1612904071808 101.30197644233704"><g style="mix-blend-mode:passthrough"><path d="M3.1612952035903934,99.72134520359039L3.161645203590393,99.45804520359039L0.0003552035903930939,99.4539452035904L0.000005203590393021429,99.71924520359039L1.580653190610393,99.72134520359039L3.1612952035903934,99.72134520359039L3.1612952035903934,99.72134520359039ZM0.154965203590393,94.08144520359039L3.310965203590393,94.26414520359039L3.3127052035903928,94.23414520359039L3.339595203590393,93.76964520359039L3.341565203590393,93.73554520359039L0.18555520359039313,93.5528452035904L0.154965203590393,94.08144520359039ZM6.129025203590393,65.26954520359038L9.092135203590393,66.37124520359039L9.098385203590393,66.35444520359039L9.270665203590394,65.8910452035904L9.275925203590393,65.87684520359039L6.312815203590393,64.7752452035904L6.129025203590393,65.26954520359038ZM8.333945203590392,59.78434520359039L11.228825203590393,61.05454520359039L11.231075203590393,61.04934520359039L11.438385203590393,60.57694520359039L11.441265203590394,60.57034520359039L8.546385203590393,59.30014520359039L8.333945203590392,59.78434520359039ZM27.91824520359039,30.479445203590394L30.187845203590392,32.680045203590396L30.190445203590393,32.677445203590395L30.553345203590393,32.30314520359039L30.556345203590393,32.30004520359039L28.286745203590392,30.099445203590392L27.91824520359039,30.479445203590394ZM32.14294520359039,26.344545203590393L34.281945203590396,28.672245203590393L34.295845203590396,28.659545203590394L34.653945203590396,28.330445203590394L34.66984520359039,28.315845203590392L32.53084520359039,25.988045203590392L32.14294520359039,26.344545203590393ZM38.941345203590394,24.633845203590393Q38.7971452035904,24.750945203590394,38.65354520359039,24.868545203590394L38.59344520359039,24.917545203590393L36.59554520359039,22.467645203590394L37.00584520359039,22.13304520359039L39.003645203590395,24.583045203590395L38.941345203590394,24.633845203590393ZM43.433245203590396,21.201145203590393Q43.334745203590394,21.27184520359039,43.23624520359039,21.342945203590393L43.121545203590394,21.425545203590392L41.27434520359039,18.860145203590392L41.703345203590395,18.551245203590394L43.550545203590396,21.116645203590394L43.433245203590396,21.201145203590393ZM48.17324520359039,18.00974520359039Q48.073845203590395,18.072445203590394,47.974945203590394,18.135045203590394L47.85004520359039,18.214045203590395L46.161145203590394,15.541645203590393L46.60794520359039,15.259345203590392L48.29674520359039,17.931645203590392L48.17324520359039,18.00974520359039ZM53.15214520359039,15.079745203590393Q52.99734520359039,15.164645203590393,52.84324520359039,15.249845203590393L52.764145203590395,15.293445203590393L51.23904520359039,12.524345203590393L51.70234520359039,12.269145203590393L53.22744520359039,15.038245203590392L53.15214520359039,15.079745203590393ZM58.303945203590395,12.452945203590392Q58.087945203590394,12.555045203590392,57.87234520359039,12.658345203590393L57.84684520359039,12.670445203590393L56.48854520359039,9.815805203590394L56.96714520359039,9.588085203590394L58.32544520359039,12.442645203590393L58.303945203590395,12.452945203590392ZM63.079245203590396,10.347905203590393L63.080945203590396,10.347235203590394L63.56734520359039,10.149395203590393L63.57034520359039,10.148185203590392L62.37934520359039,7.219825203590393L61.88834520359039,7.419545203590393L63.079245203590396,10.347905203590393ZM67.41614520359039,5.339425203590393L68.4347452035904,8.332125203590394L68.4673452035904,8.321025203590393L68.89854520359039,8.174285203590394L68.9355452035904,8.161695203590394L67.91694520359039,5.168985203590394L67.41614520359039,5.339425203590393ZM96.3598452035904,0.050535203590392985L96.4510452035904,3.210505203590393L96.46284520359039,3.2101652035903934L96.9703452035904,3.195515203590393L96.9788452035904,3.195275203590393L96.8876452035904,0.035295203590393065L96.3598452035904,0.050535203590392985ZM102.27364520359039,0.035295203590393065L102.1826452035904,3.195275203590393L102.1916452035904,3.195535203590393L102.6976452035904,3.210155203590393L102.7096452035904,3.210505203590393L102.8016452035904,0.050535203590392985L102.27364520359039,0.035295203590393065ZM108.1676452035904,0.362835203590393L107.8906452035904,3.511985203590393L107.95164520359039,3.517325203590393L108.3516452035904,3.552425203590393L108.41664520359039,3.5581652035903932L108.69364520359039,0.4090152035903931L108.1676452035904,0.362835203590393ZM125.59464520359039,3.448135203590393L124.7566452035904,6.4961752035903935L124.86564520359039,6.526325203590393Q125.0126452035904,6.566545203590393,125.15964520359039,6.6072152035903935L125.2656452035904,6.636335203590393L126.1046452035904,3.588285203590393L125.59464520359039,3.448135203590393ZM131.24464520359038,5.168955203590393L130.2256452035904,8.161665203590392L130.26864520359038,8.176455203590393L130.6876452035904,8.318925203590393L130.72664520359038,8.332095203590393L131.74464520359038,5.339395203590393L131.24464520359038,5.168955203590393ZM136.7816452035904,7.219775203590393L135.59064520359038,10.148155203590393L135.5936452035904,10.149105203590393L136.0796452035904,10.346855203590392L136.0816452035904,10.347875203590393L137.2726452035904,7.419495203590393L136.7816452035904,7.219775203590393ZM142.1936452035904,9.588035203590392L140.8356452035904,12.442645203590393L140.8546452035904,12.451445203590392L141.2916452035904,12.659345203590393L141.3146452035904,12.670345203590394L142.6726452035904,9.815755203590394L142.1936452035904,9.588035203590392ZM147.45864520359038,12.269145203590393L145.9336452035904,15.038145203590393L146.3966452035904,15.293345203590393L147.9226452035904,12.524245203590393L147.45864520359038,12.269145203590393ZM162.15564520359038,22.13304520359039L160.1576452035904,24.582945203590395L160.5676452035904,24.917545203590393L162.5656452035904,22.467545203590394L162.15564520359038,22.13304520359039ZM166.6306452035904,25.988045203590392L164.4916452035904,28.315745203590392L164.5086452035904,28.33134520359039L164.8686452035904,28.66214520359039L164.8796452035904,28.672145203590393L167.01864520359038,26.344445203590393L166.6306452035904,25.988045203590392ZM170.8746452035904,30.099345203590392L168.6046452035904,32.30004520359039L168.60864520359038,32.30394520359039L168.96564520359038,32.67204520359039L168.9736452035904,32.680045203590396L171.2426452035904,30.479345203590395L170.8746452035904,30.099345203590392ZM174.8716452035904,34.44574520359039L172.47764520359038,36.510245203590394L172.82264520359038,36.91044520359039L175.2166452035904,34.84584520359039L174.8716452035904,34.44574520359039ZM188.07264520359038,53.97234520359039L185.25664520359038,55.40934520359039L185.4966452035904,55.87964520359039L188.3126452035904,54.442645203590395L188.07264520359038,53.97234520359039ZM190.61464520359038,59.30004520359039L187.7196452035904,60.570245203590396L187.7236452035904,60.57894520359039L187.9286452035904,61.046445203590395L187.9326452035904,61.05444520359039L190.8276452035904,59.784245203590395L190.61464520359038,59.30004520359039ZM192.8486452035904,64.7751452035904L189.8856452035904,65.87684520359039L189.8946452035904,65.90114520359039L190.0566452035904,66.33834520359039L190.0696452035904,66.37124520359039L193.0326452035904,65.2694452035904L192.8486452035904,64.7751452035904ZM194.75764520359039,70.3606452035904L191.7346452035904,71.28654520359039L191.8556452035904,71.68194520359039L191.8896452035904,71.7908452035904L194.91164520359038,70.8649452035904L194.75764520359039,70.3606452035904ZM196.3326452035904,76.0532452035904L193.2606452035904,76.79664520359039L193.3116452035904,77.00914520359039L193.33364520359038,77.09764520359039L193.3846452035904,77.3105452035904L196.4576452035904,76.56724520359039L196.3326452035904,76.0532452035904ZM197.6576452035904,82.3513452035904L197.5746452035904,81.88744520359039L197.5636452035904,81.82704520359039L194.4526452035904,82.3914452035904L194.4636452035904,82.4518452035904L194.5456452035904,82.9074452035904L197.6576452035904,82.3513452035904ZM195.3236452035904,88.1928452035904L195.3496452035904,88.41564520359039L195.3666452035904,88.56504520359039L198.50664520359038,88.1958452035904L198.4446452035904,87.67084520359039L195.3056452035904,88.0400452035904L195.3236452035904,88.1928452035904ZM198.9756452035904,93.5528452035904L195.8196452035904,93.73544520359039L195.8506452035904,94.2640452035904L199.00664520359038,94.08144520359039L198.9756452035904,93.5528452035904ZM199.1606452035904,99.45384520359039L195.9996452035904,99.45804520359039L195.9996452035904,99.72134520359039L197.5806452035904,99.72134520359039L199.16164520359038,99.71924520359039L199.1606452035904,99.45384520359039ZM182.6926452035904,50.74134520359039L182.7616452035904,50.85994520359039L185.4876452035904,49.2575452035904L185.2196452035904,48.80254520359039L182.49464520359038,50.404945203590394L182.5646452035904,50.524445203590396L182.6926452035904,50.74134520359039ZM179.6236452035904,45.85394520359039L179.7316452035904,46.01344520359039L182.3546452035904,44.24984520359039L182.0596452035904,43.81134520359039L179.4366452035904,45.574945203590396L179.5436452035904,45.734845203590396L179.6236452035904,45.85394520359039ZM176.3326452035904,41.25184520359039L176.4136452035904,41.35844520359039L178.9266452035904,39.440045203590394L178.6056452035904,39.020345203590395L176.0926452035904,40.93864520359039L176.17364520359038,41.04464520359039L176.3326452035904,41.25184520359039ZM155.9286452035904,21.345545203590394L156.0396452035904,21.425445203590392L157.8866452035904,18.860045203590392L157.4576452035904,18.551145203590394L155.6106452035904,21.116645203590394L155.7226452035904,21.197445203590394L155.9286452035904,21.345545203590394ZM151.19764520359038,18.14234520359039L151.3116452035904,18.21394520359039L152.9996452035904,15.541645203590393L152.5536452035904,15.259245203590392L150.86464520359038,17.931645203590392L150.97664520359038,18.002545203590394L151.19764520359038,18.14234520359039ZM119.5486452035904,5.236285203590393L119.7156452035904,5.2714452035903925L120.36864520359039,2.178398203590393L119.8556452035904,2.069955203590393L119.84764520359039,2.068329203590393L119.2026452035904,5.163185203590393L119.21064520359039,5.164815203590393L119.3756452035904,5.199755203590393L119.5486452035904,5.236285203590393ZM113.9596452035904,4.224725203590394L114.09164520359039,4.244425203590393L114.55664520359039,1.1175112035903931L114.03464520359039,1.039784203590393L113.5696452035904,4.166695203590393L113.69864520359039,4.185955203590392L113.9596452035904,4.224725203590394ZM91.21194520359039,3.517095203590393L91.2700452035904,3.511995203590393L90.9933452035904,0.362835203590393L90.4677452035904,0.40902520359039296L90.74454520359039,3.558175203590393L90.80774520359039,3.552615203590393Q91.00994520359039,3.534425203590393,91.21194520359039,3.517095203590393ZM85.46964520359039,4.184885203590393L85.5919452035904,4.166705203590393L85.1269452035904,1.039799203590393L84.6042452035904,1.117524203590393L85.0692452035904,4.244435203590394L85.19404520359039,4.225875203590393L85.46964520359039,4.184885203590393ZM79.7991452035904,5.196825203590393L79.95244520359039,5.164445203590393L79.95854520359039,5.163185203590393L79.3136452035904,2.0683732035903932L79.2991452035904,2.071400203590393L78.79244520359039,2.178420203590393L79.4458452035904,5.2714652035903935L79.59854520359039,5.239195203590393L79.7991452035904,5.196825203590393ZM74.3050452035904,6.523625203590393L74.4047452035904,6.496205203590393L73.5661452035904,3.4481552035903933L73.0567452035904,3.588315203590393L73.8953452035904,6.636355203590393L73.99064520359039,6.610135203590393Q74.14764520359039,6.566635203590393,74.3050452035904,6.523625203590393ZM26.656845203590393,36.541545203590395L26.683745203590394,36.51034520359039L24.289745203590392,34.44574520359039L23.944645203590394,34.8459452035904L26.338645203590392,36.910545203590395L26.368345203590394,36.876045203590394Q26.512245203590393,36.70854520359039,26.656845203590393,36.541545203590395ZM23.005245203590395,41.02104520359039L23.068045203590394,40.93874520359039L20.55544520359039,39.020345203590395L20.234945203590392,39.44014520359039L22.747645203590395,41.358545203590396L22.813545203590394,41.27214520359039Q22.90904520359039,41.146645203590396,23.005245203590395,41.02104520359039ZM16.608345203590392,50.50424520359039L16.66664520359039,50.40504520359039L13.941545203590394,48.802645203590394L13.674045203590394,49.25764520359039L16.399145203590393,50.860045203590396L16.45624520359039,50.76294520359039Q16.532145203590392,50.633345203590395,16.608345203590392,50.50424520359039ZM13.879745203590392,55.45734520359039L13.904145203590392,55.409445203590394L11.088375203590394,53.97234520359039L10.848355203590392,54.442645203590395L13.664145203590394,55.879745203590396L13.686845203590392,55.8352452035904Q13.782945203590392,55.645945203590394,13.879745203590392,55.45734520359039ZM7.405865203590393,71.35404520359039L7.426545203590393,71.28654520359039L4.403855203590393,70.3607452035904L4.249395203590393,70.8650452035904L7.272085203590393,71.7908452035904L7.294045203590393,71.71914520359039Q7.349585203590393,71.53654520359039,7.405865203590393,71.35404520359039ZM5.869115203590393,76.92804520359039L5.900875203590393,76.79674520359039L2.828225203590393,76.0533452035904L2.703895203590393,76.56724520359039L5.776545203590393,77.3106452035904L5.808995203590393,77.17644520359039L5.869115203590393,76.92804520359039ZM4.682285203590393,82.53724520359039L4.709025203590393,82.3877452035904L1.597181703590393,81.8308452035904L1.504093403590393,82.3509452035904L4.6159452035903925,82.9078452035904L4.642465203590393,82.7596452035904L4.682285203590393,82.53724520359039ZM3.8445052035903933,88.1372452035904L3.855945203590393,88.0400452035904L0.716277203590393,87.67094520359039L0.654545203590393,88.1959452035904L3.7942052035903933,88.56504520359039L3.805175203590393,88.47184520359039Q3.824555203590393,88.30444520359039,3.8445052035903933,88.1372452035904ZM16.91834520359039,44.082845203590395L16.804945203590393,44.252145203590395L19.431545203590392,46.01124520359039L19.544945203590395,45.84194520359039L19.723845203590393,45.576445203590396L17.102045203590393,43.81004520359039L16.91834520359039,44.082845203590395Z" fill-rule="evenodd" fill="#6F7F9F" fill-opacity="1"/></g></svg>