<svg xmlns="http://www.w3.org/2000/svg" xmlns:xlink="http://www.w3.org/1999/xlink" fill="none" version="1.1" width="112" height="55.99999237060547" viewBox="0 0 112 55.99999237060547"><defs><linearGradient x1="0.5" y1="0" x2="0.5" y2="0.5" id="master_svg0_107_8351"><stop offset="0%" stop-color="#DBDEE3" stop-opacity="1"/><stop offset="100%" stop-color="#DBDEE3" stop-opacity="0"/></linearGradient></defs><g style="opacity:0.5;mix-blend-mode:passthrough"><path d="M112,56C112,48.5739,110.579,41.4305,107.737,34.5697C104.895,27.7089,100.849,21.653,95.598,16.402C90.347,11.151,84.2911,7.10458,77.4303,4.26275C70.5695,1.42092,63.4261,0.00000508626,56,0.00000762939C48.5739,0.00000254313,41.4305,1.42092,34.5697,4.26274C27.7089,7.10458,21.653,11.151,16.402,16.402C11.151,21.653,7.10458,27.7089,4.26275,34.5697C1.42092,41.4305,0.00000127157,48.5739,0.0000038147,56L56,56L112,56Z" fill="url(#master_svg0_107_8351)" fill-opacity="1"/></g></svg>