<svg xmlns="http://www.w3.org/2000/svg" xmlns:xlink="http://www.w3.org/1999/xlink" fill="none" version="1.1" width="138" height="69.00000762939453" viewBox="0 0 138 69.00000762939453"><g style="opacity:0.5;mix-blend-mode:passthrough"><path d="M138,69C138,59.85,136.249,51.0483,132.748,42.5948C129.246,34.1414,124.26,26.6796,117.79,20.2096C111.32,13.7396,103.859,8.75386,95.4052,5.25232C86.9517,1.75077,78.15,0,69,0C59.85,0.00000508626,51.0483,1.75078,42.5948,5.25231C34.1414,8.75385,26.6796,13.7396,20.2096,20.2096C13.7396,26.6796,8.75386,34.1414,5.25232,42.5948C1.75077,51.0483,0,59.85,0,69L1.38,69C1.38,60.033,3.09576,51.4074,6.52727,43.1229C9.95878,34.8386,14.8448,27.5261,21.1854,21.1854C27.5261,14.8448,34.8386,9.95878,43.123,6.52728C51.4074,3.09576,60.033,1.38,69,1.38C77.967,1.38,86.5927,3.09576,94.8771,6.52727C103.161,9.95878,110.474,14.8448,116.815,21.1854C123.155,27.5261,128.041,34.8386,131.473,43.123C134.904,51.4074,136.62,60.033,136.62,69L138,69Z" fill="#254A96" fill-opacity="1"/></g></svg>