<svg xmlns="http://www.w3.org/2000/svg" xmlns:xlink="http://www.w3.org/1999/xlink" fill="none" version="1.1" width="609" height="18.25" viewBox="0 0 609 18.25"><g style="mix-blend-mode:passthrough"><g style="mix-blend-mode:passthrough" transform="matrix(-1,0,0,1,1218,0)"><g style="mix-blend-mode:passthrough"><path d="M1218,0.5L609,0.5L609,0L1218,0L1218,0.5Z" fill="#6F7F9F" fill-opacity="1"/></g></g><g style="mix-blend-mode:passthrough"><path d="M5.56641,13.773119999999999L1.70312,13.773119999999999L0.648438,16.57L0.046875,16.57L3.25391,8.24187L4.06641,8.24187L7.23438,16.57L6.61328,16.57L5.56641,13.773119999999999ZM5.38672,13.280940000000001L3.71875,8.780940000000001L3.60156,8.780940000000001L1.89453,13.280940000000001L5.38672,13.280940000000001ZM8.91797,8.7575L8.91797,12.023119999999999L12.4219,12.023119999999999L12.4219,12.52703L8.91797,12.52703L8.91797,16.57L8.35547,16.57L8.35547,8.24187L12.6602,8.24187L12.6602,8.7575L8.91797,8.7575ZM16.3359,7.89422Q15.9844,7.89422,15.7461,7.99578Q15.5078,8.097339999999999,15.3516,8.33953Q15.1953,8.57781,15.1211,8.968440000000001Q15.0508,9.35906,15.0508,9.945L15.0508,10.08953L16.7656,10.08953L16.7656,10.58172L15.0508,10.58172L15.0508,16.57L14.5117,16.57L14.5117,10.58172L13.3828,10.58172L13.3828,10.08953L14.5117,10.08953L14.5117,9.76531Q14.5117,8.5075,14.9961,7.95672Q15.4805,7.40203,16.3477,7.40203Q16.5156,7.40203,16.7461,7.4215599999999995Q16.9805,7.43719,17.1484,7.4606200000000005L17.1484,7.9528099999999995Q16.9805,7.9293700000000005,16.793,7.91375Q16.6094,7.89422,16.3359,7.89422ZM18.4141,8.64812Q18.1992,8.64812,18.1211,8.58562Q18.043,8.51922,18.043,8.253589999999999Q18.043,7.9918700000000005,18.1211,7.92547Q18.1992,7.8590599999999995,18.4141,7.8590599999999995Q18.6211,7.8590599999999995,18.6992,7.92547Q18.7773,7.9918700000000005,18.7773,8.253589999999999Q18.7773,8.51922,18.6992,8.58562Q18.6211,8.64812,18.4141,8.64812ZM18.1406,10.08953L18.6797,10.08953L18.6797,16.57L18.1406,16.57L18.1406,10.08953ZM23.6016,9.968440000000001Q24.2148,9.968440000000001,24.6211,10.11297Q25.0312,10.2575,25.2695,10.523119999999999Q25.5117,10.784839999999999,25.6133,11.17156Q25.7148,11.554369999999999,25.7148,12.034839999999999L25.7148,16.57L25.1758,16.57L25.1758,12.37078Q25.1758,11.866869999999999,25.1016,11.499690000000001Q25.0312,11.1325,24.8516,10.905940000000001Q24.6719,10.679369999999999,24.3516,10.57Q24.0352,10.460619999999999,23.543,10.460619999999999Q23.2188,10.460619999999999,22.8828,10.523119999999999Q22.5469,10.58172,22.25,10.749690000000001Q21.957,10.91766,21.7344,11.22625Q21.5156,11.530940000000001,21.418,12.023119999999999L21.418,16.57L20.8789,16.57L20.8789,10.08953L21.418,10.08953L21.418,11.20672Q21.5039,10.87078,21.7227,10.6325Q21.9453,10.39031,22.25,10.24578Q22.5586,10.10125,22.9062,10.034839999999999Q23.2539,9.968440000000001,23.6016,9.968440000000001ZM32.5938,12.60906Q32.5938,12.741869999999999,32.5938,12.89422Q32.5938,13.04266,32.5703,13.23406L27.9961,13.55828Q28.0117,14.27703,28.125,14.77703Q28.2383,15.27312,28.5078,15.59344Q28.7773,15.90984,29.2188,16.05437Q29.6641,16.198909999999998,30.3242,16.198909999999998Q30.8281,16.198909999999998,31.3906,16.097340000000003Q31.957,15.99578,32.3555,15.80047L32.3555,16.3161Q32.2227,16.3786,31.9922,16.445Q31.7656,16.511400000000002,31.4883,16.5661Q31.2148,16.6169,30.9023,16.652Q30.5898,16.6911,30.2891,16.6911Q29.5352,16.6911,28.9922,16.5231Q28.4531,16.3552,28.1094,15.96453Q27.7695,15.57391,27.6055,14.93328Q27.4453,14.28875,27.4453,13.33172Q27.4453,12.3825,27.6016,11.73406Q27.7578,11.085619999999999,28.0938,10.695Q28.4297,10.304369999999999,28.957,10.13641Q29.4844,9.968440000000001,30.2305,9.968440000000001Q31.0352,9.968440000000001,31.5,10.21062Q31.9688,10.44891,32.2148,10.835619999999999Q32.4609,11.218440000000001,32.5273,11.687190000000001Q32.5938,12.155940000000001,32.5938,12.60906ZM32.0781,12.78875Q32.0781,12.26141,32.0234,11.83172Q31.9688,11.398119999999999,31.7695,11.093440000000001Q31.5742,10.784839999999999,31.1992,10.624690000000001Q30.8281,10.460619999999999,30.207,10.460619999999999Q29.5703,10.460619999999999,29.1484,10.60516Q28.7305,10.749690000000001,28.4766,11.07Q28.2266,11.38641,28.1172,11.89031Q28.0117,12.39422,27.9961,13.10125L32.0781,12.78875ZM34.6055,8.24187L35.5625,8.24187L38.1797,13.835619999999999L38.2539,13.835619999999999L40.8438,8.24187L41.8047,8.24187L41.8047,16.57L41.2266,16.57L41.2266,8.79266L41.1562,8.79266L38.5273,14.43328L37.8789,14.43328L35.2383,8.79266L35.168,8.79266L35.168,16.57L34.6055,16.57L34.6055,8.24187ZM46.6133,9.968440000000001Q47.3438,9.968440000000001,47.793,10.124690000000001Q48.2422,10.280940000000001,48.4922,10.55828Q48.7461,10.835619999999999,48.8359,11.20281Q48.9297,11.566089999999999,48.9297,11.999690000000001L48.9297,16.57L48.4727,16.57L48.3867,15.41766Q48.1016,16.03094,47.4102,16.363Q46.7188,16.6911,45.8438,16.6911Q44.6797,16.6911,44.168,16.198909999999998Q43.6602,15.70672,43.6602,14.80437Q43.6602,14.18328,43.8555,13.79266Q44.0547,13.40203,44.3945,13.179369999999999Q44.7383,12.95672,45.207,12.874690000000001Q45.6758,12.78875,46.2031,12.78875L48.3867,12.78875L48.3867,12.08172Q48.3867,11.69891,48.3086,11.398119999999999Q48.2305,11.097339999999999,48.0312,10.89422Q47.8359,10.691089999999999,47.4805,10.58172Q47.1289,10.472339999999999,46.5742,10.472339999999999Q46.2656,10.472339999999999,45.8789,10.51141Q45.4961,10.54656,45.125,10.628589999999999L45.125,10.10125Q45.4844,10.04266,45.875,10.0075Q46.2656,9.968440000000001,46.6133,9.968440000000001ZM45.832,16.18719Q46.793,16.18719,47.4688,15.80437Q48.1484,15.41766,48.3867,14.67547L48.3867,13.26922L46.2773,13.26922Q45.7734,13.26922,45.3867,13.33172Q45.0039,13.39031,44.7383,13.554369999999999Q44.4766,13.71453,44.3359,14.023119999999999Q44.1992,14.32781,44.1992,14.80437Q44.1992,16.18719,45.832,16.18719ZM51.4141,8.64812Q51.1992,8.64812,51.1211,8.58562Q51.043,8.51922,51.043,8.253589999999999Q51.043,7.9918700000000005,51.1211,7.92547Q51.1992,7.8590599999999995,51.4141,7.8590599999999995Q51.6211,7.8590599999999995,51.6992,7.92547Q51.7773,7.9918700000000005,51.7773,8.253589999999999Q51.7773,8.51922,51.6992,8.58562Q51.6211,8.64812,51.4141,8.64812ZM51.1406,10.08953L51.6797,10.08953L51.6797,16.57L51.1406,16.57L51.1406,10.08953ZM56.6016,9.968440000000001Q57.2148,9.968440000000001,57.6211,10.11297Q58.0312,10.2575,58.2695,10.523119999999999Q58.5117,10.784839999999999,58.6133,11.17156Q58.7148,11.554369999999999,58.7148,12.034839999999999L58.7148,16.57L58.1758,16.57L58.1758,12.37078Q58.1758,11.866869999999999,58.1016,11.499690000000001Q58.0312,11.1325,57.8516,10.905940000000001Q57.6719,10.679369999999999,57.3516,10.57Q57.0352,10.460619999999999,56.543,10.460619999999999Q56.2188,10.460619999999999,55.8828,10.523119999999999Q55.5469,10.58172,55.25,10.749690000000001Q54.957,10.91766,54.7344,11.22625Q54.5156,11.530940000000001,54.418,12.023119999999999L54.418,16.57L53.8789,16.57L53.8789,10.08953L54.418,10.08953L54.418,11.20672Q54.5039,10.87078,54.7227,10.6325Q54.9453,10.39031,55.25,10.24578Q55.5586,10.10125,55.9062,10.034839999999999Q56.2539,9.968440000000001,56.6016,9.968440000000001ZM65.5938,8.7575L62.9883,8.7575L62.9883,16.57L62.4258,16.57L62.4258,8.7575L59.8086,8.7575L59.8086,8.24187L65.5938,8.24187L65.5938,8.7575ZM69.3633,9.968440000000001Q70.0938,9.968440000000001,70.543,10.124690000000001Q70.9922,10.280940000000001,71.2422,10.55828Q71.4961,10.835619999999999,71.5859,11.20281Q71.6797,11.566089999999999,71.6797,11.999690000000001L71.6797,16.57L71.2227,16.57L71.1367,15.41766Q70.8516,16.03094,70.1602,16.363Q69.4688,16.6911,68.5938,16.6911Q67.4297,16.6911,66.918,16.198909999999998Q66.4102,15.70672,66.4102,14.80437Q66.4102,14.18328,66.6055,13.79266Q66.8047,13.40203,67.1445,13.179369999999999Q67.4883,12.95672,67.957,12.874690000000001Q68.4258,12.78875,68.9531,12.78875L71.1367,12.78875L71.1367,12.08172Q71.1367,11.69891,71.0586,11.398119999999999Q70.9805,11.097339999999999,70.7812,10.89422Q70.5859,10.691089999999999,70.2305,10.58172Q69.8789,10.472339999999999,69.3242,10.472339999999999Q69.0156,10.472339999999999,68.6289,10.51141Q68.2461,10.54656,67.875,10.628589999999999L67.875,10.10125Q68.2344,10.04266,68.625,10.0075Q69.0156,9.968440000000001,69.3633,9.968440000000001ZM68.582,16.18719Q69.543,16.18719,70.2188,15.80437Q70.8984,15.41766,71.1367,14.67547L71.1367,13.26922L69.0273,13.26922Q68.5234,13.26922,68.1367,13.33172Q67.7539,13.39031,67.4883,13.554369999999999Q67.2266,13.71453,67.0859,14.023119999999999Q66.9492,14.32781,66.9492,14.80437Q66.9492,16.18719,68.582,16.18719ZM74.1641,8.64812Q73.9492,8.64812,73.8711,8.58562Q73.793,8.51922,73.793,8.253589999999999Q73.793,7.9918700000000005,73.8711,7.92547Q73.9492,7.8590599999999995,74.1641,7.8590599999999995Q74.3711,7.8590599999999995,74.4492,7.92547Q74.5273,7.9918700000000005,74.5273,8.253589999999999Q74.5273,8.51922,74.4492,8.58562Q74.3711,8.64812,74.1641,8.64812ZM73.8906,10.08953L74.4297,10.08953L74.4297,16.57L73.8906,16.57L73.8906,10.08953ZM79.3516,9.968440000000001Q79.9648,9.968440000000001,80.3711,10.11297Q80.7812,10.2575,81.0195,10.523119999999999Q81.2617,10.784839999999999,81.3633,11.17156Q81.4648,11.554369999999999,81.4648,12.034839999999999L81.4648,16.57L80.9258,16.57L80.9258,12.37078Q80.9258,11.866869999999999,80.8516,11.499690000000001Q80.7812,11.1325,80.6016,10.905940000000001Q80.4219,10.679369999999999,80.1016,10.57Q79.7852,10.460619999999999,79.293,10.460619999999999Q78.9688,10.460619999999999,78.6328,10.523119999999999Q78.2969,10.58172,78,10.749690000000001Q77.707,10.91766,77.4844,11.22625Q77.2656,11.530940000000001,77.168,12.023119999999999L77.168,16.57L76.6289,16.57L76.6289,10.08953L77.168,10.08953L77.168,11.20672Q77.2539,10.87078,77.4727,10.6325Q77.6953,10.39031,78,10.24578Q78.3086,10.10125,78.6562,10.034839999999999Q79.0039,9.968440000000001,79.3516,9.968440000000001Z" fill="#B2BAC9" fill-opacity="1"/></g><g style="opacity:0.5;mix-blend-mode:passthrough"><g style="opacity:0.30000001192092896;mix-blend-mode:passthrough"><rect x="555" y="8.25" width="10" height="10" rx="0" fill="#6F7F9F" fill-opacity="1"/></g><g style="opacity:0.5;mix-blend-mode:passthrough"><rect x="577" y="8.25" width="10" height="10" rx="0" fill="#6F7F9F" fill-opacity="1"/></g><g style="mix-blend-mode:passthrough"><rect x="599" y="8.25" width="10" height="10" rx="0" fill="#6F7F9F" fill-opacity="1"/></g></g></g></svg>